<svg id="Layer_1" data-name="Layer 1" xmlns="http://www.w3.org/2000/svg" xmlns:xlink="http://www.w3.org/1999/xlink" viewBox="0 0 644 310.84"><defs><style>.cls-1{fill:url(#Degradado_sin_nombre_2);}.cls-2{fill:url(#Degradado_sin_nombre_2-2);}.cls-3{fill:url(#Degradado_sin_nombre_2-3);}.cls-4{fill:url(#Degradado_sin_nombre_2-4);}.cls-5{fill:url(#Degradado_sin_nombre_2-5);}.cls-6{fill:url(#Degradado_sin_nombre_2-6);}.cls-7{fill:url(#Degradado_sin_nombre_2-7);}.cls-8{fill:url(#Degradado_sin_nombre_2-8);}.cls-9{fill:#35388d;}</style><linearGradient id="Degradado_sin_nombre_2" x1="574.88" y1="258.53" x2="574.88" y2="10.15" gradientUnits="userSpaceOnUse"><stop offset="0" stop-color="#2d2e82"/><stop offset="1" stop-color="#1d70b7"/></linearGradient><linearGradient id="Degradado_sin_nombre_2-2" x1="549.62" y1="250.29" x2="549.62" y2="11.35" xlink:href="#Degradado_sin_nombre_2"/><linearGradient id="Degradado_sin_nombre_2-3" x1="225.84" y1="248" x2="225.84" y2="3.69" xlink:href="#Degradado_sin_nombre_2"/><linearGradient id="Degradado_sin_nombre_2-4" x1="341.59" y1="246.1" x2="341.59" y2="12.82" xlink:href="#Degradado_sin_nombre_2"/><linearGradient id="Degradado_sin_nombre_2-5" x1="333.43" y1="248" x2="333.43" y2="4.37" xlink:href="#Degradado_sin_nombre_2"/><linearGradient id="Degradado_sin_nombre_2-6" x1="441.18" y1="248" x2="441.18" y2="3.56" xlink:href="#Degradado_sin_nombre_2"/><linearGradient id="Degradado_sin_nombre_2-7" x1="96.24" y1="243.85" x2="96.24" y2="11.37" xlink:href="#Degradado_sin_nombre_2"/><linearGradient id="Degradado_sin_nombre_2-8" x1="97.2" y1="247.15" x2="97.2" y2="9.1" xlink:href="#Degradado_sin_nombre_2"/></defs><path class="cls-1" d="M642,165.13q-10-12.1-29.42-18.36a129.73,129.73,0,0,0-18-4.57q-9.39-1.68-16.6-3.45c-1.53-.36-2.93-.74-4.28-1.11l-40.79,40.79c2.6,1.07,5.3,2.08,8.19,3a146.17,146.17,0,0,0,17.32,4.24q9.78,1.84,16.19,3.45,12,2.9,16.2,6.09t4.17,9.46q0,8-9.06,11.71a55.18,55.18,0,0,1-20.93,3.69,80,80,0,0,1-21.4-2.65c-23.54-6.53-45.78-26.64-45.78-26.64V244.1q11.55,5.78,29.26,10.1a157.79,157.79,0,0,0,37.6,4.33q21.81,0,37.44-4.65a87.33,87.33,0,0,0,27.18-13.15,54.44,54.44,0,0,0,16.84-19.32A51.83,51.83,0,0,0,652,197.28Q652,177.24,642,165.13Z" transform="translate(-8 -5.56)"/><path class="cls-2" d="M600.69,69.46a170.18,170.18,0,0,0-18.12-.94,122.46,122.46,0,0,0-35.67,4.81q-15.81,4.82-26.54,13a57.88,57.88,0,0,0-16.28,19A48.67,48.67,0,0,0,498.55,128q0,20.57,10.25,33.35Z" transform="translate(-8 -5.56)"/><rect class="cls-3" x="197.78" y="185.2" width="56.12" height="62.8"/><path class="cls-4" d="M462.33,84.56a43.25,43.25,0,0,0-16.83-12,59.64,59.64,0,0,0-22.45-4q-14.76,0-29.1,8.1T363.4,99.79q-6.57-15.56-19.08-23.41t-29-7.86a56.83,56.83,0,0,0-27.42,6.58,153.53,153.53,0,0,0-26,18.28V73.49H205.78v88.19H261.9V125.93a98.17,98.17,0,0,1,12.83-7.54,30.36,30.36,0,0,1,13.47-3.21q9,0,14,2.65a16.1,16.1,0,0,1,7.46,8.42,47,47,0,0,1,3,15c.35,5.68.53,12.53.55,20.44h56.45V125.93A86,86,0,0,1,383.28,118,30.69,30.69,0,0,1,396,115.18q9.14,0,14.19,2.65a16.1,16.1,0,0,1,7.46,8.42,45.61,45.61,0,0,1,2.88,14.91c.3,5.63.45,12.51.47,20.52H477.4V136.35q0-19.25-3.76-31.19A57.3,57.3,0,0,0,462.33,84.56Z" transform="translate(-8 -5.56)"/><rect class="cls-5" x="305.21" y="185.2" width="56.44" height="62.8"/><rect class="cls-6" x="412.96" y="185.2" width="56.44" height="62.8"/><path class="cls-7" d="M128.36,80.71a144.11,144.11,0,0,0-21.08-9.22q-9.06-3-23.17-3a66.39,66.39,0,0,0-29.5,6.82A71.36,71.36,0,0,0,30.88,93.86,95.94,95.94,0,0,0,14,124q-5.67,16.13-6,37.68H65.42c.33-15.64,3.68-28,10.11-36.88q10.18-14.1,30.39-14.11a59.56,59.56,0,0,1,11.54,1.37,45,45,0,0,1,10.9,3.44v46.18h56.12V5.56H128.36Z" transform="translate(-8 -5.56)"/><path class="cls-8" d="M128.36,203.85a51.39,51.39,0,0,1-13.78,7.86,41.63,41.63,0,0,1-14.92,2.89q-18.12,0-26.21-11.87a39.77,39.77,0,0,1-5.19-12H9.91c2.63,16.67,42.88,87.72,106,53.66,5.08-2.74,8.79-6.63,12.42-9.62v18.76h56.12v-62.8H128.36Z" transform="translate(-8 -5.56)"/><polygon class="cls-9" points="229.16 310.4 235.27 310.4 235.27 293.55 251.76 293.55 251.76 288.77 235.27 288.77 235.27 275.45 254.62 275.45 254.62 270.67 229.16 270.67 229.16 310.4"/><path class="cls-9" d="M420.16,276.23H414L397.66,316h4.69a2.14,2.14,0,0,0,1.32-.44,2.27,2.27,0,0,0,.74-.95l3.63-9.21h18.12l3.63,9.21a2.18,2.18,0,0,0,.74,1,2.11,2.11,0,0,0,1.32.38h4.68Zm-3.05,24.93v0h-7.37l6.06-15.36c.21-.53.43-1.14.66-1.82s.42-1.42.63-2.22l0,.11h0a33.31,33.31,0,0,0,1.29,3.89l6.1,15.4Z" transform="translate(-8 -5.56)"/><path class="cls-9" d="M152.48,296.75a12.52,12.52,0,0,0-3.12-1.94,37.78,37.78,0,0,0-3.58-1.38q-1.82-.6-3.57-1.14a18.41,18.41,0,0,1-3.12-1.31,7,7,0,0,1-2.21-1.8,4.1,4.1,0,0,1-.85-2.66,5.56,5.56,0,0,1,.48-2.31,5.2,5.2,0,0,1,1.38-1.86,6.75,6.75,0,0,1,2.27-1.24,10.08,10.08,0,0,1,3.16-.45,10.68,10.68,0,0,1,3.29.45,12.87,12.87,0,0,1,2.37,1c.65.38,1.2.71,1.64,1a2.14,2.14,0,0,0,1.17.46,1.29,1.29,0,0,0,.81-.22,2.16,2.16,0,0,0,.6-.68l1.51-2.81a14.93,14.93,0,0,0-5.05-3.06,18.45,18.45,0,0,0-6.38-1.06,15.34,15.34,0,0,0-5.49.92,12.45,12.45,0,0,0-4,2.47,10.34,10.34,0,0,0-2.51,3.53,10.18,10.18,0,0,0-.86,4.12,10.75,10.75,0,0,0,.83,4.47,8.79,8.79,0,0,0,2.2,3,11.93,11.93,0,0,0,3.12,2,38.06,38.06,0,0,0,3.58,1.31l3.57,1.1a16.24,16.24,0,0,1,3.12,1.27,6.85,6.85,0,0,1,2.21,1.85,4.72,4.72,0,0,1,.82,2.85,7.12,7.12,0,0,1-.54,2.82,6.06,6.06,0,0,1-1.56,2.17,7.08,7.08,0,0,1-2.51,1.39,11,11,0,0,1-3.37.49,11.36,11.36,0,0,1-3.94-.61,14.9,14.9,0,0,1-2.77-1.35c-.77-.48-1.42-.93-1.94-1.33a2.39,2.39,0,0,0-1.39-.61,1.58,1.58,0,0,0-.81.21,2.25,2.25,0,0,0-.63.56l-1.74,2.82a15.05,15.05,0,0,0,2.59,2.14,18.26,18.26,0,0,0,3.1,1.63,20.57,20.57,0,0,0,3.52,1.06,19.46,19.46,0,0,0,3.84.38,16.46,16.46,0,0,0,5.89-1,12.56,12.56,0,0,0,4.35-2.69,11.71,11.71,0,0,0,2.71-4,13,13,0,0,0,.92-4.92,9.33,9.33,0,0,0-.84-4.17A9.18,9.18,0,0,0,152.48,296.75Z" transform="translate(-8 -5.56)"/><path class="cls-9" d="M209.8,281.51a18.87,18.87,0,0,0-6.44-4.22,22.22,22.22,0,0,0-8.33-1.5h0a22.36,22.36,0,0,0-8.29,1.49,18.57,18.57,0,0,0-10.6,10.65,21.89,21.89,0,0,0-1.48,8.16,21.63,21.63,0,0,0,1.48,8.17,19.09,19.09,0,0,0,4.17,6.43,18.71,18.71,0,0,0,6.43,4.19,22.16,22.16,0,0,0,8.29,1.5v0h0a22.42,22.42,0,0,0,8.33-1.5A18.46,18.46,0,0,0,214,304.28a23.44,23.44,0,0,0,0-16.34A18.61,18.61,0,0,0,209.8,281.51Zm-1.6,21a13.43,13.43,0,0,1-2.85,4.78,12,12,0,0,1-4.46,3,15.8,15.8,0,0,1-5.86,1h0a15.68,15.68,0,0,1-5.83-1,12.53,12.53,0,0,1-4.49-3,13.58,13.58,0,0,1-2.85-4.78,20.79,20.79,0,0,1,0-12.74A13.26,13.26,0,0,1,184.7,285a12.53,12.53,0,0,1,4.49-3,15.48,15.48,0,0,1,5.83-1.05h0a15.6,15.6,0,0,1,5.86,1.05,12.08,12.08,0,0,1,4.46,3,13.26,13.26,0,0,1,2.85,4.78,20.79,20.79,0,0,1,0,12.74Z" transform="translate(-8 -5.56)"/><polygon class="cls-9" points="504.02 305.62 504.02 292.67 519.58 292.67 519.58 288.05 504.02 288.05 504.02 275.45 523.35 275.45 523.35 270.67 497.89 270.67 497.89 310.41 523.35 310.41 523.38 305.62 504.02 305.62"/><path class="cls-9" d="M473,298.64a14.83,14.83,0,0,0,4.16-1.6,11.66,11.66,0,0,0,3.1-2.5,10.14,10.14,0,0,0,1.93-3.28,12.08,12.08,0,0,0-.23-8.49,9,9,0,0,0-2.78-3.51,13.61,13.61,0,0,0-4.75-2.24,22.92,22.92,0,0,0-5.07-.74c-.58,0-1.17,0-1.79,0H455.74V316h6.08v-16.3h4a4,4,0,0,1,1.72.29,3.1,3.1,0,0,1,1.06,1l.78,1.08h0l9.37,12.72A2.54,2.54,0,0,0,481.1,316h5.44L475,300.5A6.11,6.11,0,0,0,473,298.64Zm-3.64-3.37h0a15.66,15.66,0,0,1-2,.11h-5.56V280.86h5.75c.63,0,1.23,0,1.79.07a9.92,9.92,0,0,1,5.22,1.67,6,6,0,0,1,2.32,5.17,7.87,7.87,0,0,1-.59,3.08,6.56,6.56,0,0,1-1.81,2.41,8.24,8.24,0,0,1-3,1.57A11.52,11.52,0,0,1,469.36,295.27Z" transform="translate(-8 -5.56)"/><path class="cls-9" d="M379.17,276.64a1.81,1.81,0,0,0-.72,1l-8.12,26.59c-.26,1-.52,2.19-.74,3.45a31,31,0,0,0-.91-3.45l-9.25-26.59a2.21,2.21,0,0,0-.74-1,2.1,2.1,0,0,0-1.31-.39h-1.75a2.17,2.17,0,0,0-1.33.42,2.09,2.09,0,0,0-.74,1l-9.27,26.59a15.37,15.37,0,0,0-.49,1.68c-.15.61-.28,1.25-.42,1.91-.14-.66-.26-1.3-.38-1.91s-.27-1.17-.43-1.68l-8.09-26.59a1.8,1.8,0,0,0-.72-1,2.32,2.32,0,0,0-1.34-.37h-5.1L340.14,316h5.46l10.13-29.47q.28-.86.6-2.13a13.24,13.24,0,0,0,.6,2.13l10,29.47h5.5l12.82-39.73h-4.74A2.26,2.26,0,0,0,379.17,276.64Z" transform="translate(-8 -5.56)"/><polygon class="cls-9" points="271.38 275.59 284.49 275.59 284.49 310.4 290.56 310.4 290.56 275.59 303.6 275.59 303.6 270.67 271.38 270.67 271.38 275.59"/></svg>